<svg xmlns="http://www.w3.org/2000/svg" width="96" height="83"><g fill="none" fill-rule="evenodd"><path fill="#F05F00" d="M91.383 46.827l-16.652.408-2.34 17.211 11.322 8.014 10.243-8.543z"/><path fill="#F68B00" d="M91.28 46.64L72.286 64.26l11.322 8.014 10.243-8.543z"/><path fill="#383D40" d="M46.877 38.494H31.455l.62 7.758H46.39l.487-7.758zm3.747 0l-.487 7.758h11.965l.946-7.758H50.624zm-5.006 20.048l.54-8.597H32.37l.688 8.597h12.559zm3.747 0h11.24l1.047-8.597H49.905l-.54 8.597zM27.703 38.494H14.108l1.362 7.758h12.854l-.62-7.758zm1.604 20.048l-.688-8.597h-12.5l1.509 8.597h11.679zM13.46 34.8h53.805l-3.344 27.434H18.276l.684 3.9c.335 1.903 2.008 3.293 3.965 3.293h37.527v3.693H22.925c-3.776 0-7.004-2.682-7.65-6.355L9.242 32.394H0v-3.693h12.39l.268 1.531.802 4.569zM29.205 79c0 1.922-1.58 3.48-3.526 3.48-1.947 0-3.526-1.558-3.526-3.48 0-1.924 1.579-3.482 3.526-3.482 1.946 0 3.526 1.558 3.526 3.481zm25.305 0c0 1.922-1.578 3.48-3.525 3.48-1.948 0-3.525-1.558-3.525-3.48 0-1.924 1.577-3.482 3.525-3.482 1.947 0 3.525 1.558 3.525 3.481zm21.011-53.422l-2.366-2.336-2.366 2.336 2.366 2.336 2.366-2.336zm-10.021 0l7.655-7.559 7.656 7.56-7.656 7.558-7.655-7.559z"/><path fill="#383D40" d="M40.248 18.772l7.52-2.388 1.145 3.516-13.448 4.27-4.344-13.34 3.56-1.13 2.339 7.18C43.554 3.813 58.896-3.037 73.472 1.36c12.634 3.81 21.265 15.114 21.703 27.944l-3.739.124c-.384-11.264-7.963-21.19-19.056-24.536-12.893-3.89-26.467 2.242-32.132 13.88zM79.67 56.657l-1.849-3.21a27.128 27.128 0 002.924-1.898l2.252 2.948a30.873 30.873 0 01-3.328 2.16zm6.357-4.737l-2.62-2.635a26.575 26.575 0 002.328-2.574l2.946 2.275a30.284 30.284 0 01-2.654 2.934zm4.907-6.2l-3.222-1.874a26.373 26.373 0 001.574-3.083l3.442 1.445a30.048 30.048 0 01-1.794 3.513zm3.136-7.304l-3.604-.988c.315-1.118.554-2.247.718-3.382l3.702.522a30.145 30.145 0 01-.816 3.848zm1.12-7.795l-3.74-.038c.005-.38 0-.761-.013-1.141l3.738-.123c.015.433.02.867.016 1.302z"/></g></svg>